<svg width="20" height="20" viewBox="0 0 20 20" fill="none" xmlns="http://www.w3.org/2000/svg">
<circle cx="10" cy="10" r="10" fill="#CAF0F8"/>
<path d="M10 0C4.47489 0 0 4.47499 0 10.0002C0 14.6999 3.22468 18.6004 7.57532 19.7C7.52511 19.5749 7.50043 19.3996 7.50043 19.2251V17.5246H6.25021C5.57532 17.5246 4.94979 17.2251 4.67489 16.6744C4.34979 16.0744 4.29957 15.1493 3.47489 14.5739C3.22468 14.3739 3.42468 14.1739 3.69957 14.1986C4.22468 14.3484 4.64936 14.699 5.04936 15.2233C5.44936 15.7484 5.62468 15.8735 6.37447 15.8735C6.72426 15.8735 7.27404 15.8489 7.77447 15.7731C8.04936 15.0727 8.52425 14.448 9.09957 14.1484C5.74979 13.7484 4.14979 12.0981 4.14979 9.84787C4.14979 8.87253 4.57447 7.94741 5.27489 7.14739C5.05021 6.37205 4.74979 4.77202 5.37532 4.14732C6.87574 4.14732 7.77532 5.12266 8 5.37203C8.74979 5.12181 9.57532 4.97202 10.4247 4.97202C11.2996 4.97202 12.0996 5.12181 12.8494 5.37203C13.074 5.12181 13.9745 4.14732 15.474 4.14732C16.074 4.74734 15.7991 6.37205 15.5489 7.14739C16.2494 7.92272 16.6494 8.87253 16.6494 9.84787C16.6494 12.0981 15.074 13.7484 11.7498 14.0982C12.6749 14.5731 13.3251 15.9229 13.3251 16.9229V19.2004C13.3251 19.2753 13.3004 19.3502 13.3004 19.4251C17.2 18.0753 20 14.3756 20 10.0002C20 4.47499 15.5251 0 10 0Z" fill="#00B4D8"/>
</svg>
