<svg width="20" height="20" viewBox="0 0 20 20" fill="none" xmlns="http://www.w3.org/2000/svg">
<circle cx="10" cy="10" r="10" fill="#CAF0F8"/>
<path d="M9.99998 4.35276C11.8393 4.35276 12.0571 4.35979 12.7836 4.39293C13.4552 4.42358 13.8199 4.53577 14.0627 4.63011C14.3619 4.74054 14.6325 4.91662 14.8547 5.1454C15.0835 5.3676 15.2596 5.63824 15.37 5.93744C15.4643 6.18017 15.5765 6.54491 15.6072 7.21653C15.6403 7.94291 15.6473 8.16076 15.6473 10.0001C15.6473 11.8395 15.6403 12.0573 15.6072 12.7837C15.5765 13.4553 15.4643 13.82 15.37 14.0628C15.2554 14.3599 15.0799 14.6297 14.8547 14.8548C14.6295 15.08 14.3597 15.2555 14.0627 15.3701C13.8199 15.4645 13.4552 15.5767 12.7836 15.6073C12.0573 15.6405 11.8395 15.6475 9.99998 15.6475C8.16048 15.6475 7.94271 15.6405 7.21638 15.6073C6.54477 15.5767 6.18005 15.4644 5.9373 15.3701C5.6381 15.2597 5.36745 15.0836 5.14526 14.8548C4.91647 14.6326 4.74039 14.362 4.62996 14.0628C4.53563 13.8201 4.42341 13.4553 4.39278 12.7837C4.35964 12.0574 4.35262 11.8395 4.35262 10.0001C4.35262 8.16076 4.35964 7.94297 4.39278 7.21653C4.42344 6.54491 4.53563 6.1802 4.62996 5.93744C4.7404 5.63823 4.9165 5.36757 5.14531 5.14537C5.36751 4.91659 5.63815 4.74051 5.93735 4.63008C6.18008 4.53574 6.54482 4.42353 7.21644 4.3929C7.94282 4.35976 8.16067 4.35273 10 4.35273L9.99998 4.35276ZM10 3.11157C8.12923 3.11157 7.89456 3.1195 7.15995 3.15303C6.42672 3.18649 5.926 3.30292 5.48785 3.47322C5.02822 3.64619 4.61184 3.91733 4.26777 4.26775C3.91727 4.6118 3.64605 5.02817 3.47302 5.48783C3.30286 5.92601 3.18643 6.42673 3.1531 7.15995C3.11944 7.89457 3.11151 8.12923 3.11151 10C3.11151 11.8708 3.11944 12.1055 3.1531 12.8401C3.18657 13.5733 3.303 14.0741 3.4733 14.5122C3.64626 14.9719 3.91741 15.3882 4.26782 15.7323C4.6119 16.0827 5.02827 16.3539 5.4879 16.5268C5.92609 16.6971 6.4268 16.8136 7.16 16.847C7.89473 16.8805 8.12931 16.8885 10.0001 16.8885C11.8709 16.8885 12.1056 16.8805 12.8402 16.847C13.5734 16.8136 14.0741 16.6971 14.5123 16.5268C14.9699 16.3498 15.3854 16.0792 15.7324 15.7323C16.0793 15.3854 16.3499 14.9698 16.5269 14.5122C16.6972 14.074 16.8136 13.5733 16.8471 12.8401C16.8806 12.1054 16.8885 11.8708 16.8885 10C16.8885 8.12926 16.8806 7.89457 16.8471 7.15995C16.8136 6.42673 16.6972 5.92601 16.5269 5.48785C16.3539 5.02822 16.0828 4.61185 15.7323 4.26778C15.3883 3.91729 14.9719 3.64609 14.5122 3.47308C14.074 3.30292 13.5733 3.18649 12.8401 3.15316C12.1054 3.1195 11.8708 3.11157 9.99998 3.11157H10Z" fill="#00B4D8"/>
<path d="M10 6.46265C9.30039 6.46265 8.61648 6.67011 8.03477 7.05879C7.45306 7.44748 6.99967 7.99993 6.73194 8.6463C6.46421 9.29266 6.39416 10.0039 6.53065 10.6901C6.66714 11.3762 7.00403 12.0065 7.49874 12.5012C7.99344 12.9959 8.62373 13.3328 9.30991 13.4693C9.99608 13.6058 10.7073 13.5358 11.3537 13.268C12 13.0003 12.5525 12.5469 12.9412 11.9652C13.3299 11.3835 13.5373 10.6996 13.5373 9.99997C13.5373 9.06181 13.1646 8.16208 12.5013 7.4987C11.8379 6.83533 10.9382 6.46265 10 6.46265ZM10 12.2961C9.54587 12.2961 9.10194 12.1614 8.72434 11.9091C8.34675 11.6568 8.05245 11.2982 7.87867 10.8786C7.70488 10.4591 7.65942 9.99741 7.74802 9.552C7.83662 9.10659 8.0553 8.69746 8.37643 8.37635C8.69755 8.05523 9.10668 7.83655 9.55209 7.74795C9.99749 7.65936 10.4592 7.70483 10.8787 7.87862C11.2983 8.05241 11.6569 8.34671 11.9092 8.72431C12.1615 9.10191 12.2962 9.54584 12.2962 9.99997C12.2962 10.6089 12.0542 11.193 11.6236 11.6236C11.193 12.0542 10.609 12.2961 10 12.2961Z" fill="#00B4D8"/>
<path d="M13.6771 7.14955C14.1336 7.14955 14.5037 6.77946 14.5037 6.32294C14.5037 5.86642 14.1336 5.49634 13.6771 5.49634C13.2206 5.49634 12.8505 5.86642 12.8505 6.32294C12.8505 6.77946 13.2206 7.14955 13.6771 7.14955Z" fill="#00B4D8"/>
</svg>
