<svg width="30" height="23" viewBox="0 0 30 23" fill="none" xmlns="http://www.w3.org/2000/svg">
<path d="M20.9796 11.5C20.9796 14.6108 20.312 17.4024 19.257 19.3981C18.1902 21.4163 16.8023 22.5 15.4005 22.5C13.9986 22.5 12.6108 21.4163 11.5439 19.3981C10.489 17.4024 9.82135 14.6108 9.82135 11.5C9.82135 8.38915 10.489 5.59761 11.5439 3.60194C12.6108 1.58372 13.9986 0.5 15.4005 0.5C16.8023 0.5 18.1902 1.58372 19.257 3.60194C20.312 5.59761 20.9796 8.38915 20.9796 11.5Z" stroke="#CAF0F8"/>
<ellipse cx="15.1978" cy="11.5" rx="3.03957" ry="2.57463" fill="#00B4D8"/>
<path d="M17.9606 7.19299C21.1635 8.75931 23.706 10.6602 25.2344 12.4501C25.9994 13.3459 26.4943 14.1952 26.7044 14.9441C26.914 15.691 26.8318 16.2994 26.5113 16.7696C26.1908 17.2398 25.6099 17.6043 24.7414 17.824C23.8707 18.0443 22.7549 18.1059 21.4565 17.9927C18.8623 17.7664 15.6475 16.8518 12.4447 15.2855C9.24182 13.7191 6.69929 11.8182 5.17089 10.0284C4.40591 9.13258 3.911 8.28328 3.70088 7.53437C3.49131 6.78746 3.57351 6.17908 3.89401 5.70888C4.2145 5.23868 4.79542 4.87419 5.66385 4.65446C6.53461 4.43415 7.6504 4.37254 8.94879 4.48579C11.5429 4.71205 14.7577 5.62668 17.9606 7.19299Z" stroke="#CAF0F8"/>
<ellipse cx="4.25538" cy="9.3483" rx="1.41846" ry="1.20149" fill="#00B4D8"/>
<ellipse cx="25.3297" cy="17.6791" rx="1.41846" ry="1.20149" fill="#00B4D8"/>
<path d="M17.5553 15.2855C14.3524 16.8518 11.1376 17.7664 8.54349 17.9927C7.2451 18.1059 6.12931 18.0443 5.25855 17.824C4.39012 17.6043 3.8092 17.2398 3.48871 16.7696C3.16821 16.2994 3.08601 15.691 3.29557 14.9441C3.5057 14.1952 4.00061 13.3459 4.76559 12.4501C6.29399 10.6602 8.83652 8.75932 12.0394 7.193C15.2422 5.62668 18.457 4.71206 21.0512 4.4858C22.3496 4.37255 23.4654 4.43416 24.3361 4.65447C25.2046 4.8742 25.7855 5.23869 26.106 5.70889C26.4265 6.17909 26.5087 6.78747 26.2991 7.53438C26.089 8.28329 25.5941 9.13259 24.8291 10.0284C23.3007 11.8182 20.7582 13.7191 17.5553 15.2855Z" stroke="#CAF0F8"/>
<ellipse cx="26.1403" cy="5.32089" rx="1.41846" ry="1.20149" fill="#00B4D8"/>
</svg>
