<svg width="300" height="250" viewBox="0 0 300 250" fill="none" xmlns="http://www.w3.org/2000/svg">
<rect width="300" height="250" rx="30" fill="#CAF0F8"/>
<path d="M190.697 125.5C190.697 149.384 186.208 170.885 179.059 186.321C171.812 201.967 162.303 210.5 152.67 210.5C143.037 210.5 133.528 201.967 126.281 186.321C119.131 170.885 114.642 149.384 114.642 125.5C114.642 101.616 119.131 80.1153 126.281 64.6789C133.528 49.0331 143.037 40.5 152.67 40.5C162.303 40.5 171.812 49.0331 179.059 64.6789C186.208 80.1153 190.697 101.616 190.697 125.5Z" stroke="#0077B6" stroke-width="5"/>
<ellipse cx="151.264" cy="123.59" rx="20.2638" ry="19.5896" fill="#D62828"/>
<path d="M170.333 91.7322C191.748 103.685 208.785 118.21 219.054 131.933C224.19 138.798 227.56 145.365 229.002 151.229C230.439 157.076 229.93 162.068 227.553 166.047C225.177 170.027 220.959 172.949 215.003 174.669C209.029 176.394 201.46 176.856 192.743 175.989C175.315 174.254 153.785 167.253 132.369 155.3C110.953 143.347 93.9163 128.822 83.6483 115.099C78.512 108.234 75.1417 101.666 73.7002 95.8028C72.2628 89.9555 72.7721 84.9637 75.1486 80.9843C77.5251 77.005 81.7424 74.0827 87.6992 72.3625C93.6728 70.6375 101.241 70.1753 109.959 71.0432C127.387 72.778 148.917 79.7792 170.333 91.7322Z" stroke="#0077B6" stroke-width="5"/>
<ellipse cx="76.7432" cy="104.995" rx="9.45643" ry="9.14179" fill="#D62828"/>
<ellipse cx="218.865" cy="172.515" rx="9.45643" ry="9.14179" fill="#D62828"/>
<path d="M167.631 155.3C146.215 167.253 124.685 174.254 107.257 175.989C98.5396 176.856 90.971 176.394 84.9974 174.669C79.0405 172.949 74.8233 170.027 72.4468 166.047C70.0702 162.068 69.5609 157.076 70.9984 151.229C72.4399 145.365 75.8101 138.798 80.9464 131.933C91.2145 118.21 108.252 103.685 129.667 91.7322C151.083 79.7792 172.613 72.778 190.041 71.0431C198.759 70.1753 206.327 70.6375 212.301 72.3625C218.258 74.0827 222.475 77.005 224.851 80.9843C227.228 84.9637 227.737 89.9555 226.3 95.8028C224.858 101.666 221.488 108.234 216.352 115.099C206.084 128.822 189.047 143.347 167.631 155.3Z" stroke="#0077B6" stroke-width="5"/>
<ellipse cx="224.269" cy="78.4851" rx="9.45643" ry="9.14179" fill="#D62828"/>
<ellipse cx="159.714" cy="123.5" rx="6.85714" ry="7" fill="#F77F00"/>
</svg>
